<svg id="visual" viewBox="0 0 220 150" width="220" height="150" xmlns="http://www.w3.org/2000/svg" xmlns:xlink="http://www.w3.org/1999/xlink" version="1.1"><rect x="0" y="0" width="220" height="150" fill="#FAF9F9"></rect><path d="M0 106L31 88L63 87L94 110L126 93L157 94L189 109L220 99L220 151L189 151L157 151L126 151L94 151L63 151L31 151L0 151Z" fill="#ff6f61"></path><path d="M0 115L31 106L63 116L94 110L126 105L157 108L189 114L220 109L220 151L189 151L157 151L126 151L94 151L63 151L31 151L0 151Z" fill="#e29e52"></path><path d="M0 126L31 125L63 123L94 123L126 120L157 126L189 126L220 126L220 151L189 151L157 151L126 151L94 151L63 151L31 151L0 151Z" fill="#bfc075"></path><path d="M0 124L31 134L63 120L94 125L126 121L157 133L189 128L220 121L220 151L189 151L157 151L126 151L94 151L63 151L31 151L0 151Z" fill="#acd6ad"></path><path d="M0 137L31 131L63 139L94 138L126 135L157 136L189 138L220 136L220 151L189 151L157 151L126 151L94 151L63 151L31 151L0 151Z" fill="#bee3db"></path></svg>